<svg xmlns="http://www.w3.org/2000/svg" width="28" height="31.059" viewBox="0 0 28 31.059">
  <path id="event_note_FILL0_wght500_GRAD0_opsz48_1_" data-name="event_note_FILL0_wght500_GRAD0_opsz48 (1)" d="M116.627,200.841a2.647,2.647,0,0,1-2.605-2.605V174.691a2.652,2.652,0,0,1,2.605-2.615h2.4v-2.294h2.641v2.294h12.691v-2.294H137v2.294h2.4a2.656,2.656,0,0,1,2.615,2.615v23.545a2.652,2.652,0,0,1-2.615,2.605Zm0-2.605h22.78V181.875h-22.78Zm0-18.656h22.78v-4.889h-22.78Zm0,0v0Zm3.742,8.095v-2.4h15.3v2.4Zm0,6.856v-2.4h10.669v2.4Z" transform="translate(-114.022 -169.782)" fill="#fff"/>
</svg>
