<svg id="Group_29774" data-name="Group 29774" xmlns="http://www.w3.org/2000/svg" width="44.473" height="44.473" viewBox="0 0 44.473 44.473">
  <g id="ic_fieldissues">
    <path id="Path_32169" data-name="Path 32169" d="M22.237,0A22.237,22.237,0,1,1,0,22.237,22.237,22.237,0,0,1,22.237,0Z" fill="#fff"/>
    <path id="schedule_FILL0_wght500_GRAD0_opsz48" d="M89.09,186.214l1.343-1.33-4.32-4.349V175.1H84.326v6.157Zm-3.952,5.8a10.77,10.77,0,0,1-4.312-.875,11.189,11.189,0,0,1-5.929-5.928,11.06,11.06,0,0,1,0-8.625,11.21,11.21,0,0,1,5.926-5.93,11.016,11.016,0,0,1,8.626,0,11.233,11.233,0,0,1,5.929,5.929,11.017,11.017,0,0,1,0,8.626,11.213,11.213,0,0,1-5.929,5.926A10.754,10.754,0,0,1,85.138,192.019ZM85.137,180.9Zm0,9.25a9.275,9.275,0,1,0-6.528-2.715A8.919,8.919,0,0,0,85.134,190.153Z" transform="translate(-62.903 -158.664)" fill="#6f63c7"/>
  </g>
</svg>
