<svg xmlns="http://www.w3.org/2000/svg" width="40" height="40" viewBox="0 0 40 40">
  <g id="ic_fieldissues" transform="translate(-120.404 -622)">
    <path id="Path_32169" data-name="Path 32169" d="M20,0A20,20,0,1,1,0,20,20,20,0,0,1,20,0Z" transform="translate(120.404 622)" fill="#6f63c7"/>
    <path id="schedule_FILL0_wght500_GRAD0_opsz48" d="M87.574,184.561l1.208-1.2L84.9,179.453v-4.889H83.289V180.1Zm-3.554,5.221A9.686,9.686,0,0,1,80.141,189a10.064,10.064,0,0,1-5.332-5.332,9.947,9.947,0,0,1,0-7.757,10.083,10.083,0,0,1,5.33-5.333,9.908,9.908,0,0,1,7.758,0,10.1,10.1,0,0,1,5.333,5.333,9.909,9.909,0,0,1,0,7.758,10.085,10.085,0,0,1-5.333,5.33A9.672,9.672,0,0,1,84.02,189.782ZM84.019,179.785Zm0,8.319a8.342,8.342,0,1,0-5.872-2.442A8.022,8.022,0,0,0,84.016,188.1Z" transform="translate(56.383 462.218)" fill="#fff"/>
  </g>
</svg>
