<svg id="Group_29774" data-name="Group 29774" xmlns="http://www.w3.org/2000/svg" width="44.473" height="44.473" viewBox="0 0 44.473 44.473">
  <g id="ic_fieldissues">
    <path id="Path_32169" data-name="Path 32169" d="M22.237,0A22.237,22.237,0,1,1,0,22.237,22.237,22.237,0,0,1,22.237,0Z" fill="#fff"/>
    <path id="add_a_photo_FILL0_wght600_GRAD0_opsz48" d="M19.313,9.072V6.887H17.1V5.26h2.21V3.05H20.94V5.26h2.21V6.887H20.94V9.072ZM3.068,23.277a1.843,1.843,0,0,1-1.348-.571,1.843,1.843,0,0,1-.571-1.348V9.145a1.883,1.883,0,0,1,.571-1.36A1.824,1.824,0,0,1,3.068,7.2H6.444L8.362,4.944h6.483V6.887H9.26L7.318,9.145H3.068V21.359H19.338V11.525H21.28v9.834a1.807,1.807,0,0,1-.595,1.348,1.9,1.9,0,0,1-1.348.571ZM11.2,19.392a4.065,4.065,0,0,0,4.128-4.152,3.952,3.952,0,0,0-1.19-2.926A4.013,4.013,0,0,0,11.2,11.136a4.025,4.025,0,0,0-4.128,4.1A4.043,4.043,0,0,0,8.253,18.2,3.981,3.981,0,0,0,11.2,19.392Zm0-1.457a2.577,2.577,0,0,1-1.918-.765,2.639,2.639,0,0,1-.753-1.93,2.568,2.568,0,0,1,.753-1.894,2.6,2.6,0,0,1,1.918-.753,2.609,2.609,0,0,1,1.906.753,2.547,2.547,0,0,1,.765,1.894,2.617,2.617,0,0,1-.765,1.93A2.587,2.587,0,0,1,11.2,17.935ZM11.2,15.264Z" transform="translate(10.086 9.073)" fill="#6f63c7"/>
  </g>
</svg>
