<svg xmlns="http://www.w3.org/2000/svg" width="40" height="40" viewBox="0 0 40 40">
  <g id="Ic_job_photos" data-name="Ic_job photos" transform="translate(-120 -622)">
    <path id="Path_32169" data-name="Path 32169" d="M20,0A20,20,0,1,1,0,20,20,20,0,0,1,20,0Z" transform="translate(120 622)" fill="#6f63c7"/>
    <path id="add_a_photo_FILL0_wght600_GRAD0_opsz48" d="M16.579,8.166V6.309H14.7V4.927h1.877V3.05h1.382V4.927h1.877V6.309H17.961V8.166ZM2.78,20.233a1.565,1.565,0,0,1-1.145-.485A1.565,1.565,0,0,1,1.15,18.6V8.227a1.6,1.6,0,0,1,.485-1.155,1.55,1.55,0,0,1,1.145-.5H5.647l1.63-1.918h5.508v1.65H8.04L6.389,8.227H2.78V18.6H16.6V10.249h1.65V18.6a1.535,1.535,0,0,1-.505,1.145,1.611,1.611,0,0,1-1.145.485Zm6.91-3.3A3.453,3.453,0,0,0,13.2,13.4a3.357,3.357,0,0,0-1.011-2.486,3.409,3.409,0,0,0-2.5-1A3.419,3.419,0,0,0,6.183,13.4a3.434,3.434,0,0,0,1,2.517A3.382,3.382,0,0,0,9.69,16.932Zm0-1.238a2.189,2.189,0,0,1-1.63-.65,2.242,2.242,0,0,1-.639-1.64A2.182,2.182,0,0,1,8.06,11.8a2.207,2.207,0,0,1,1.63-.639,2.216,2.216,0,0,1,1.619.639,2.164,2.164,0,0,1,.65,1.609,2.223,2.223,0,0,1-.65,1.64A2.2,2.2,0,0,1,9.69,15.695ZM9.69,13.426Z" transform="translate(129.85 628.95)" fill="#fff"/>
  </g>
</svg>
