<svg id="ic_fieldissues" xmlns="http://www.w3.org/2000/svg" width="44.473" height="44.473" viewBox="0 0 44.473 44.473">
  <path id="Path_32169" data-name="Path 32169" d="M22.237,0A22.237,22.237,0,1,1,0,22.237,22.237,22.237,0,0,1,22.237,0Z" fill="#fff"/>
  <path id="stars_FILL0_wght500_GRAD0_opsz48" d="M80.685,187.286l4.334-3.3,4.334,3.3-1.734-5.336,4.334-3.061H86.671l-1.652-5.5-1.679,5.5H78.057l4.334,3.061Zm4.335,4.5a10.68,10.68,0,0,1-4.267-.863,11.054,11.054,0,0,1-5.867-5.866,11.041,11.041,0,0,1,0-8.561A10.973,10.973,0,0,1,77.246,173a11.265,11.265,0,0,1,3.5-2.352,11.015,11.015,0,0,1,8.563,0,10.98,10.98,0,0,1,5.843,5.841,11.016,11.016,0,0,1,0,8.564,11.266,11.266,0,0,1-2.352,3.5,10.974,10.974,0,0,1-3.491,2.361A10.74,10.74,0,0,1,85.02,191.782Zm0-1.845a9.134,9.134,0,1,0-6.476-2.676A8.812,8.812,0,0,0,85.019,189.937ZM85.019,180.785Z" transform="translate(-62.786 -158.782)" fill="#6f63c7"/>
</svg>
