<svg xmlns="http://www.w3.org/2000/svg" width="40" height="40" viewBox="0 0 40 40">
  <g id="ic_fieldissues" transform="translate(-120.404 -622)">
    <path id="Path_32169" data-name="Path 32169" d="M20,0A20,20,0,1,1,0,20,20,20,0,0,1,20,0Z" transform="translate(120.404 622)" fill="#6f63c7"/>
    <path id="stars_FILL0_wght500_GRAD0_opsz48" d="M80.079,185.695l3.94-3,3.94,3-1.576-4.851,3.94-2.783h-4.8l-1.5-5-1.527,5h-4.8l3.94,2.783Zm3.941,4.087A9.709,9.709,0,0,1,80.14,189a10.049,10.049,0,0,1-5.333-5.333,10.037,10.037,0,0,1,0-7.783,9.975,9.975,0,0,1,2.146-3.174,10.241,10.241,0,0,1,3.185-2.138,10.014,10.014,0,0,1,7.785,0,9.982,9.982,0,0,1,5.312,5.31,10.015,10.015,0,0,1,0,7.786,10.242,10.242,0,0,1-2.138,3.185A9.976,9.976,0,0,1,87.923,189,9.764,9.764,0,0,1,84.02,189.782Zm0-1.678a8.3,8.3,0,1,0-5.888-2.432A8.011,8.011,0,0,0,84.019,188.1ZM84.019,179.785Z" transform="translate(56.382 462.218)" fill="#fff"/>
  </g>
</svg>
