<svg xmlns="http://www.w3.org/2000/svg" width="40" height="40" viewBox="0 0 40 40">
  <g id="ic_fieldissues" transform="translate(-120 -622)">
    <path id="Path_32169" data-name="Path 32169" d="M20,0A20,20,0,1,1,0,20,20,20,0,0,1,20,0Z" transform="translate(120 622)" fill="#fff"/>
    <path id="settings_b_roll_FILL0_wght400_GRAD0_opsz48" d="M90,186Zm-2.3,10-.5-3.15a6.7,6.7,0,0,1-1-.475,6.871,6.871,0,0,1-.925-.625l-2.95,1.35L80,189l2.7-1.975a2.971,2.971,0,0,1-.062-.513q-.012-.287-.012-.512t.012-.513a2.971,2.971,0,0,1,.063-.512L80,183l2.325-4.1,2.95,1.35a6.871,6.871,0,0,1,.925-.625,5.174,5.174,0,0,1,1-.45L87.7,176h4.6l.5,3.15a8.105,8.105,0,0,1,1.012.463,4.3,4.3,0,0,1,.913.637l2.95-1.35L100,183l-2.225,1.575a4.871,4.871,0,0,0-.863-.312q-.438-.113-.913-.188l2-1.475-1-1.8-2.65,1.15a5.573,5.573,0,0,0-1.3-1.087,4.217,4.217,0,0,0-1.6-.562l-.35-2.8H88.9l-.35,2.8a5.3,5.3,0,0,0-1.587.6,5.514,5.514,0,0,0-1.312,1.05L83,180.8l-1,1.8,2.35,1.725q-.1.425-.162.838a5.642,5.642,0,0,0,0,1.675q.062.413.162.838L82,189.4l1,1.8,2.65-1.15a6.662,6.662,0,0,0,1.1.887,5.612,5.612,0,0,0,1.275.613,6.666,6.666,0,0,0,.65,2.45,7.41,7.41,0,0,0,1.425,2Zm.65-7.2q.125-.35.275-.7a5.175,5.175,0,0,1,.35-.675,1.715,1.715,0,0,1-.538-.613A1.742,1.742,0,0,1,88.25,186,1.75,1.75,0,0,1,90,184.25a1.742,1.742,0,0,1,.813.188,1.715,1.715,0,0,1,.613.537,5.178,5.178,0,0,1,.675-.35q.35-.15.7-.275a3.238,3.238,0,0,0-1.163-1.162,3.257,3.257,0,0,0-4.45,4.45A3.238,3.238,0,0,0,88.35,188.8ZM95,194l3-3-3-3-.7.7,1.8,1.8H92v1h4.075L94.3,193.3Zm0,2a4.819,4.819,0,0,1-3.538-1.463C90.488,193.563,90,191,90,191s.488-2.563,1.462-3.538A5,5,0,1,1,95,196Z" transform="translate(50.404 456)" fill="#583083"/>
  </g>
</svg>
